<?xml version="1.0" encoding="UTF-8" standalone="no"?>
<!DOCTYPE svg PUBLIC "-//W3C//DTD SVG 1.1//EN" "http://www.w3.org/Graphics/SVG/1.1/DTD/svg11.dtd">
<svg width="100%" height="100%" viewBox="0 0 1512 1800" version="1.1" xmlns="http://www.w3.org/2000/svg" xmlns:xlink="http://www.w3.org/1999/xlink" xml:space="preserve" xmlns:serif="http://www.serif.com/" style="fill-rule:evenodd;clip-rule:evenodd;stroke-linecap:round;stroke-linejoin:round;stroke-miterlimit:1.5;">
	<g id="Layer3">
		<path d="M41.789,321.824c0,0 482.513,-0.079 713.014,-278.319c0,0 339.449,319.56 710.985,277.268l-1099.59,1031.24c0,0 -381.005,-469.452 -324.413,-1030.19" style="fill:#ff7500;stroke:#000;stroke-width:0.63px;" />
	</g>
	<g>
		<g>
			<g id="Layer1">
				<g>
					<path d="M755.949,43.469c0,0 -241.741,286.95 -712.383,280.45" style="fill:none;stroke:#000;stroke-width:22.92px;" />
					<path d="M43.566,323.919c0,0 -90.178,841.433 709.252,1392.86" style="fill:none;stroke:#000;stroke-width:22.92px;" />
				</g>
			</g>
		</g>
		<g id="Layer11" serif:id="Layer1">
			<path d="M756.824,44.11c0,0 241.742,286.95 712.384,280.45" style="fill:none;stroke:#000;stroke-width:22.92px;" />
			<path d="M1469.21,324.56c0,0 90.178,841.433 -709.252,1392.86" style="fill:none;stroke:#000;stroke-width:22.92px;" />
		</g>
	</g>
	<path d="M610.62,523.037l3.435,21.849l-23.166,-7.583l-2.418,28.353c0,0 9.614,4.872 3.686,14.138c0,0 -19.443,5.791 -26.753,19.402c0,0 6.376,10.565 17.653,13.071c0,0 -18.907,30.826 -3.442,46.971c0,0 2.342,-1.985 4.022,-4.924c1.68,-2.939 7.121,-0.204 7.121,-0.204c0,0 -6.495,23.41 -3.986,29.55c0,0 2.406,43.072 11.169,45.764c0,0 4.474,-9.651 4.636,-11.517c0.162,-1.867 3.544,1.19 3.544,1.19c0,0 0.789,59.97 6.469,74.218c0,0 11.067,34.397 14.559,37.029c0,0 4.944,-6.373 7.092,-14.051l5.128,0.339c0,0 16.183,67.748 12.502,89.712c0,0 13.364,-10.662 17.979,-7.998c0,0 -2.57,41.465 -24.926,63.435c0,0 -5.29,12.608 -6.045,17.998c0,0 -14.753,12.453 -37.621,12.524c0,0 -48.61,0.553 -53.88,-28.735l0.525,-6.331c0,0 4.91,-0.846 5.86,3.477c0,0 2.955,-11.32 -1.83,-14.859c0,0 -5.761,-37.262 4.305,-40.969c0,0 7.365,3.091 6.815,5.054c0,0 -7.457,-26.738 5.067,-48.559c0,0 24.342,-56.884 24.204,-62.945c0,0 6.459,-27.708 -7.183,-79.239c0,0 -24.925,-56.02 -43.874,-66.429c0,0 -34.756,-22.61 -63.648,-22.391c0,0 -38.807,2.005 -56.111,25.429c0,0 -24.417,28.272 -29.098,54.217c0,0 -2.217,12.062 1.124,26.61c0,0 5.791,29.597 22.81,44.409c0,0 15.992,23.771 28.869,24.275c0,0 -5.815,-10.394 0.839,-11.628c0,0 26.571,-2.274 65.137,-15.873c0,0 22.445,-0.922 25.215,-3.231c0,0 -22.056,-34.953 -40.613,-39.656c0,0 -10.163,-7.536 1.213,-10.622c0,0 2.211,-6.899 1.294,-6.055c0,0 -20.943,5.819 -26.684,3.877c0,0 -25.723,-6.153 -25.155,-23.429c0,0 -5.597,-26.572 22.517,-33c0,0 22.598,-3.78 27.302,1.283c0,0 20.124,9.575 28.142,15.945c0,0 29.45,26.173 32.003,51.331c0,0 18.245,39.709 -12.405,98.29c0,0 -15.143,32.275 -39.995,51.896c0,0 8.375,-2.286 11.187,2.368c0,0 4.549,13.079 -29.195,57.885c0,0 10.254,-5.425 13.451,0.688c0,0 1.938,48.005 28.559,65.334c0,0 33.109,21.844 72.103,26.434c0,0 2.688,28.774 14.167,44.561l-15.213,2.055c0,0 3.507,14.284 11.382,21.508c0,0 2.594,8.463 -10.085,6.339c0,0 -40.018,7.882 -54.228,17.603c0,0 -47.261,28.82 -49.414,42.933c0,0 17.223,0.635 19.88,5.322c0,0 5.065,15.62 -4.052,27.502c0,0 -11.294,17.634 -23.212,15.063c0,0 -4.566,1.06 -12.667,4.437c0,0 11.801,18.179 8.82,32.139c0,0 -0.779,26.767 -16.678,30.293c0,0 30.837,9.223 38.204,33.902c0,0 24.142,1.683 36.583,27.154c0,0 8.436,16.877 14.844,18.413c0,0 14.498,4.382 22.164,3.21c0,0 9.654,18.857 23.092,18.609c0,0 -8.192,-15.81 3.684,-22.346c0,0 4.916,-5.696 17.884,-2.252c0,0 10.192,5.913 10.352,8.942c0,0 5.439,-6.364 11.046,-6.257c0,0 -3.037,-25.278 4.432,-25.825c0,0 16.699,-4.823 26.609,0.648c0,0 -1.691,-8.683 0.318,-7.991c0,0 9.89,-3.891 10.746,-18.975c0,0 -5.803,-23.458 -24.467,-28.143c0,0 -22.731,-4.841 -28.668,-3.836c0,0 -26.61,5.856 -29.81,4.7c0,0 -42.488,-12.05 -45.064,-35.004c0,0 -1.577,-12.186 8.297,-20.041c0,0 4.197,-2.908 19.302,4.791c0,0 4.709,-39.349 35.765,-43.326c0,0 12.401,-2.316 21.623,0.201c9.222,2.517 38.636,27.245 42.158,44.303c0,0 14.664,-16.896 18.116,-17.366c0,0 18.845,17.119 20.873,35.723c0,0 4.649,-39.031 7.18,-38.832c0,0 6.405,-1.012 15.153,2.784c0,0 -14.667,-44.491 -12.055,-81.088c0,0 -1.153,-31.21 7.204,-48.355c0,0 16.704,-14.042 39.056,-20.174c0,0 20.538,-4.297 37.086,0.801c0,0 34.212,8.777 34.534,48.933c0,0 12.156,-4.9 16.078,-4.496c0,0 -4.518,33.484 -25.677,39.306c0,0 51.307,12.622 16.774,55.572c0,0 17.472,40.152 -8.902,61.948c0,0 19.867,-12.284 47.028,19.424c0,0 17.387,-6.238 23.28,-2.935c0,0 20.197,28.653 34.029,32.254c0,0 21.952,0.955 27.626,-0.04c0,0 12.395,11.727 15.763,12.068c0,0 11.369,0.072 11.366,-0.268c0,0 -15.59,-45.825 28.13,-21.969c0,0 6.441,-13.283 10.155,-11.301c0,0 -14.074,-15.243 1.49,-29.645c0,0 14.391,-4.687 16.651,-2.422c0,0 9.784,-17.12 7.167,-29.312c0,0 -13.626,-27.818 -40.529,-23.598c0,0 -34.323,-0.564 -53.232,19.617c0,0 -8.27,5.749 -18.07,-4.04c0,0 -24.445,-9.17 -30.953,-32.466c0,0 2.084,-10.468 7.526,-10.852c5.442,-0.385 19.244,-0.276 19.244,-0.276c0,0 10.093,6.764 10.82,9.199c0,0 -10.227,-39.988 9.607,-51.106c0,0 13.697,-12.434 22.607,-4.736c0,0 5.55,10.108 5.858,13.282c0,0 5.458,-31.364 5.004,-39.093c0,0 -7.704,-10.611 -3.948,-17.879c0,0 17.599,-0.56 25.773,5.504c0,0 -32.351,-37.935 -33.517,-45.594c0,0 -2.815,-17.788 1.768,-21.632c0,0 5.317,-13.438 8.378,-14.741c0,0 -14.388,7.059 -20.775,5.03c0,0 -37.756,-7.186 -59.993,-20.802c0,0 -42.433,-15.399 -65.188,-14.695c0,0 -33.226,-0.004 -36.573,2.073c0,0 4.426,-23.005 7.499,-22.94c0,0 53.41,-33.51 84.497,-30.891c0,0 22.615,1.346 28.507,7.938l2.235,-15.978c0,0 6.707,-1.966 11.13,-0.459c0,0 14.364,20.036 13.839,23.845c0,0 -1.887,-39.522 10.315,-37.011c0,0 12.249,5.182 22.209,28.697c0,0 -10.924,-47.115 -8.912,-58.01c0,0 6.202,-61.643 20.155,-74.803c0,0 11.295,-16.41 14.409,-14.539c0,0 5.069,6.777 3.966,11.275c0,0 20.125,-26.45 39.503,-30.553c0,0 35.641,-17.894 50.22,-38.182c0,0 33.552,-35.551 33.618,-45.847c0,0 2.609,-25.203 -16.133,-33.31c0,0 -7.537,1.197 -16.592,-14.161c0,0 -22.64,-17.711 -31.246,-17.369c0,0 -21.394,-26.558 -31.755,-17.381c0,0 -12.088,1.55 -16.503,-11.658c0,0 -21.203,-7.903 -29.684,-16.362c0,0 -5.287,-4.592 -8.006,-3.437c0,0 -5.332,-10.45 -6.299,-9.341c0,0 -39.399,43.089 -44.616,58.438c0,0 -0.308,5.615 -0.773,6.827c0,0 -14.311,1.795 -17.297,26.578c0,0 2.278,30.722 5.616,35.917c0,0 -2.275,32.372 -13.386,45.422c0,0 -7.201,-7.589 -26.833,-7.108c0,0 -8.028,2.914 -11.898,2.094c0,0 -11.119,-3.784 -13.231,-15.37c0,0 -24.493,34.374 -68.034,31.755c0,0 -33.939,0.344 -42.712,-26.462c0,0 -3.086,-19.256 6.616,-19.788c0,0 17.634,-2.454 26.503,-0.117c0,0 18.136,6.414 27.527,20.949c0,0 -10.886,-39.911 -2.754,-47.725c0,0 -18.407,-4.684 -45.171,6.858c0,0 -13.492,8.464 -21.716,6.678c0,0 -25.727,0.875 -27.398,-33.186c0,0 2.588,-34.333 27.632,-42.728c0,0 34.972,-7.833 46.297,3.38c0,0 11.775,12.314 12.569,18.327c0,0 26.73,-51.601 26.614,-62.452c-0.117,-10.85 0.336,-7.619 0.336,-7.619c0,0 -5.707,-6.611 -9.798,-7.376c0,0 -34.431,-5.709 -38.532,-8.649c0,0 -20.861,-6.651 -27.596,-17.969c0,0 -4.146,-3.752 -8.845,-5.381c0,0 -24.245,-5.076 -43.984,-3.585c0,0 -13.787,-0.325 -25.195,2.489c0,0 -53.177,1.836 -62.57,-0.773c0,0 -22.69,-5.573 -23.557,-7.501Z" style="stroke:#fff;stroke-width:0.63px;" />
	<g id="Layer4">
		<path d="M762.079,573.388c0,0 -5.166,-11.591 -12.636,-13.618c0,0 -13.055,-6.123 -18.152,-4.779c0,0 -16.029,2.741 -14.033,4.298c0,0 1.845,5.399 5.498,5.184c0,0 12.517,5.845 21.479,6.166c0,0 5.238,0.985 17.844,2.749Z" style="fill:#fff;" />
	</g>
	<g id="Layer5">
		<path d="M662.974,576.809c0,0 -11.975,-2.097 -12.922,1.594c0,0 -7.535,4.982 -6.68,11.558c0,0 -0.796,8.584 0.68,9.914c0,0 4.406,0.974 6.108,-0.78c0,0 -0.454,-9.523 3.605,-10.334c0,0 0.151,-4.035 2.082,-4.818c1.93,-0.783 7.813,0.226 8.319,-1.023c0.507,-1.248 -0.625,-5.627 -1.192,-6.111Z" style="fill:#fff;" />
	</g>
	<g id="Layer6">
		<path d="M662.166,567.346c0,0 8.665,1.372 8.926,-0.345c0,0 -0.299,-6.442 -4.465,-6.787c0,0 -14.732,-6.386 -19.994,-5.197c0,0 -18.538,1.43 -23.193,11.063c0,0 -6.383,13.486 -4.434,22.923c0,0 3.095,19.102 13.696,22.861c0,0 5.238,-3.609 2.362,-8.04c0,0 -3.003,-8.684 -5.688,-10.653c0,0 -5.64,-12.389 3.109,-23.429c0,0 6.432,-6.353 16.192,-6.384c0,0 10.475,1.18 13.489,3.988Z" style="fill:#fff;stroke:#000;stroke-opacity:0;stroke-width:0.63px;" />
	</g>
	<g id="Layer7">
		<path d="M613.687,1369.6c0,0 9.321,0.467 12.273,2.482c2.951,2.014 4.651,5.593 5.995,8.443c1.345,2.85 -2.579,18.496 -3.873,21.043c-1.293,2.547 -6.681,8.332 -8.41,9.282c0,0 1.945,-16.601 -4.959,-22.416c0,0 -6.836,-4.515 -6.187,-9.981c0,0 -1.429,-7.851 5.161,-8.853Z" />
	</g>
	<g id="Layer71" serif:id="Layer7">
		<path d="M1016.62,1314.91c0,0 9.025,-2.377 12.448,-1.351c3.423,1.026 6.126,3.923 8.271,6.232c2.144,2.309 3.143,18.408 2.681,21.227c-0.462,2.819 -3.844,9.965 -5.205,11.393c0,0 -3.173,-16.41 -11.514,-19.862c0,0 -7.882,-2.232 -8.919,-7.638c0,0 -3.74,-7.05 2.238,-10.001Z" />
	</g>
	<g id="Layer8">
		<path d="M659.661,1344.54c0.024,-0.008 11.303,0.533 13.534,4.215c0,0 5.181,5.917 5.531,11.492c0.349,5.575 -1.565,19.536 -4.242,24.383c0,0 -6.164,-12.75 -12.428,-13.952c0,0 -1.566,-2.143 -3.652,-5.523c0,0 -7.225,-3.481 -4.935,-11.297c0,0 1.355,-7.748 6.192,-9.318Z" />
	</g>
	<g id="Layer81" serif:id="Layer8">
		<path d="M1054.01,1276.22c0.021,-0.013 11.052,-2.429 14.164,0.545c0,0 6.544,4.364 8.333,9.655c1.79,5.292 3.578,19.27 2.255,24.647c0,0 -9.272,-10.706 -15.633,-10.235c0,0 -2.069,-1.66 -4.964,-4.381c0,0 -7.882,-1.479 -7.707,-9.622c0,0 -0.709,-7.833 3.552,-10.609Z" />
	</g>
	<g id="Layer9">
		<path d="M693.501,1318.88c0,0 12.13,9.355 11.947,13.884c0,0 0.347,9.03 -0.493,20.48c0,0 -10.369,-16.884 -18.922,-15.651c0,0 8.082,-5.585 7.468,-18.713Z" />
	</g>
	<g id="Layer91" serif:id="Layer9">
		<path d="M1078.56,1249.7c0,0 14.056,6.087 14.991,10.522c0,0 2.555,8.668 4.554,19.973c0,0 -14.2,-13.818 -22.187,-10.521c0,0 6.462,-7.4 2.642,-19.974Z" />
	</g>
	<g id="Layer10">
		<path d="M649.367,965.394c0.953,-0.911 21.011,-17.966 40.447,-19.574c0,0 41.37,8.973 43.966,13.2c2.596,4.227 -11.148,-39.548 25.839,-44.121c0,0 37.759,8.473 25.768,45.196c0,0 59.979,-68.15 75.134,-67.427c15.156,0.723 28.683,1.286 34.955,9.529c0,0 8.937,-32.505 7.177,-33.514c0,0 53.483,-7.707 55.612,-16.331c0,0 -32.196,-27.259 -21.654,-60.619c0,0 -32.243,8.467 -7.321,-49.312" style="fill:none;stroke:#fff;stroke-width:9.17px;" />
		<path d="M936.611,791.733c0,0 54.998,-7.046 69.055,-106.418c0,0 66.09,-25.912 60.145,-68.892" style="fill:none;stroke:#fff;stroke-width:9.17px;" />
		<path d="M1005.67,685.315c0,0 -38.98,-20.153 -35.19,-17.423" style="fill:none;stroke:#fff;stroke-width:9.17px;" />
		<path d="M1032.23,670.517c0.173,0 -50.229,-43.322 -64.428,-41.331" style="fill:none;stroke:#fff;stroke-width:9.17px;" />
		<path d="M993.947,641.035c0,0 30.196,-29.351 22.879,-54.854" style="fill:none;stroke:#fff;stroke-width:9.17px;" />
		<path d="M1013.25,652.778c0,0 31.611,-38.766 25.848,-53.016" style="fill:none;stroke:#fff;stroke-width:9.17px;" />
		<path d="M752.588,1078.46c0,0 3.495,-43.284 72.639,-95.115c0,0 8.827,-5.504 11.417,-3.915" style="fill:none;stroke:#fff;stroke-width:9.17px;" />
		<path d="M752.588,1078.46c0,0 -1.426,8.338 -1.426,8.514" style="fill:none;stroke:#fff;stroke-width:9.17px;" />
	</g>
	<g id="Layer111" serif:id="Layer11">
		<path d="M562.966,308.21c0,0 71.401,8.463 80.82,18.555" style="fill:none;stroke:#000;stroke-width:0.21px;" />
		<path d="M562.966,308.21c0,0 13.027,47.026 34.574,58.698l339.836,240.465l31.302,-46.523l-324.562,-235.303c0,0 -50.089,-20.68 -81.15,-17.337Z" style="stroke:#fff;stroke-width:0.83px;" />
	</g>
	<g id="Layer14">
		<ellipse cx="1175.18" cy="749.637" rx="37.005" ry="37.575" style="stroke:#fff;stroke-width:0.83px;" />
	</g>
	<g id="Layer15">
		<text x="1157.42px" y="767.025px" style="font-family:'Luminari-Regular', 'Luminari';font-size:50px;fill:#fff;">
			X
		</text>
	</g>
	<g id="Layer12">
		<path d="M1011.74,489.098c0,0 26.908,12.937 31.204,24.631c0,0 -62.411,62.958 -70.645,82.472c0,0 -45.797,52.354 -47.833,102.997c0,0 -34.895,4.382 -32.144,-22.386c0,0 60.746,-71.895 65.747,-83.145c0,0 30.832,-51.122 53.671,-104.569Z" style="stroke:#fff;stroke-width:0.83px;" />
	</g>
	<g id="Layer13">
		<path d="M870.97,606.621c0,0 -9.718,1.752 -6.316,15.216c0,0 10.777,10.68 10.976,17.826c0,0 1.602,12.852 -6.885,16.645c0,0 -6.191,4.56 -31.991,2.889c0,0 -19.63,-0.219 -31.966,3.866c0,0 -28.416,15.612 -36.678,25.539c0,0 31.848,-13.945 44.668,-14.915c0,0 23.119,-0.658 29.816,1.709c0,0 18.427,3.505 23.074,2.676c0,0 18.837,-3.495 25.942,-19.247c0,0 3.26,-10.677 2.981,-21.328c0,0 -1.944,-16.411 -6.12,-21.921c0,0 -4.544,-9.672 -17.501,-8.955" style="stroke:#fff;stroke-width:0.83px;" />
	</g>
</svg>
